<?xml version="1.0" encoding="UTF-8"?>
<svg id="Capa_1" data-name="Capa 1" xmlns="http://www.w3.org/2000/svg" xmlns:xlink="http://www.w3.org/1999/xlink" viewBox="0 0 39 22">
   <defs>
    <style>
      .cls-1 { fill: #4de1fc; }
      .cls-2 { fill: #fff; }
      .cls-3 { fill: url(#Degradado_sin_nombre_21); }
    </style>
    <radialGradient id="Degradado_sin_nombre_21" cx="17.03" cy="7.07" fx="17.03" fy="7.07" r="4.67" gradientUnits="userSpaceOnUse">
      <stop offset="0" stop-color="#99c8e9"/>
      <stop offset="1" stop-color="#2157cf"/>
    </radialGradient>
  </defs>
  <g>
    <path class="cls-2" d="M26.75,13.57c.84,0,1.68,0,2.51,0,.09,0,.19,0,.28-.01.28-.03.47-.3.44-.53-.03-.28-.23-.47-.51-.47-1.69,0-3.39,0-5.08,0-.11,0-.21,0-.32-.02-.21-.04-.39-.14-.54-.28-.2-.19-.3-.43-.34-.69-.02-.12-.04-.25-.03-.37.01-.11.02-.22.04-.34.03-.18.1-.34.2-.49.09-.14.22-.24.36-.32.13-.08.28-.13.43-.13,1.73,0,3.47,0,5.2,0,.22,0,.39-.08.51-.26.08-.12.08-.38,0-.49-.12-.18-.3-.26-.51-.26-.2,0-.4,0-.6,0-1.62.02-3.25-.04-4.87.03-.14,0-.27.05-.4.1-.17.07-.32.17-.46.28-.35.28-.58.65-.73,1.07-.06.17-.09.34-.12.51-.04.27-.03.53.01.8.03.21.1.42.18.61.12.27.27.52.48.74.35.37.77.54,1.28.53.86,0,1.71,0,2.57,0ZM10.4,11.22c0,.6,0,1.19,0,1.79,0,.13.03.24.11.34.12.16.28.23.47.2.24-.04.43-.25.43-.51,0-1.21,0-2.42,0-3.64,0-.27-.28-.57-.6-.5-.22.05-.41.27-.41.5,0,.6,0,1.21,0,1.81ZM25.76,10.72c-.19,0-.38,0-.57,0-.19,0-.38,0-.57,0-.08,0-.15,0-.23.03-.17.05-.3.17-.34.34-.1.37.17.65.51.65.78,0,1.56,0,2.34,0,.07,0,.14,0,.21-.02.21-.05.4-.25.4-.48,0-.28-.23-.51-.52-.51-.41,0-.82,0-1.23,0Z"/>
    <path class="cls-1" d="M.51,10.19c.06-.02.03-.08.04-.11.02-.14.07-.27.13-.39.15-.3.38-.52.69-.67.15-.07.31-.1.47-.12.1-.01.19-.01.29-.01,2.01,0,4.01,0,6.02,0,.22,0,.4.09.5.29.16.3-.05.64-.32.71-.08.02-.15.02-.23.02-2.05,0-4.1,0-6.15,0-.15,0-.26.04-.36.15-.11.12-.13.4.02.54.1.1.21.13.35.13,1.88,0,3.76,0,5.64,0,.26,0,.5.08.73.21.18.1.33.24.44.41.13.18.21.39.24.61.05.33-.01.64-.18.92-.16.27-.39.47-.68.59-.21.08-.43.11-.65.11-2.03,0-4.05,0-6.08,0-.22,0-.4-.08-.51-.29-.14-.26,0-.56.23-.67.09-.05.19-.06.3-.06,2.08,0,4.16,0,6.23,0,.12,0,.21-.05.29-.13.11-.11.11-.25.08-.38-.03-.14-.12-.23-.25-.28-.04-.02-.09-.01-.14-.01-.6,0-1.2,0-1.79,0-1.3,0-2.6,0-3.89,0-.34,0-.65-.11-.91-.33-.24-.19-.39-.44-.48-.73-.02-.07-.02-.14-.04-.21,0-.02,0-.04-.03-.04v-.23Z"/>
    <path class="cls-1" d="M38.49,9.47s-.04.03-.04.06c-.03.17-.19.31-.36.35-.1.02-.2.02-.3.02-1.63,0-3.26,0-4.89,0-.15,0-.29.01-.43.06-.22.08-.4.22-.53.41-.14.2-.19.44-.21.68-.03.24,0,.46.06.69.06.25.21.44.41.59.1.08.22.14.34.17.12.03.25.04.38.04,1.67,0,3.34,0,5,0,.22,0,.37.1.49.27.02.03.03.06.03.09,0,.03,0,.07.04.07v.15s-.03.03-.04.05c-.04.17-.16.29-.32.35-.06.02-.14.04-.21.04-1.77,0-3.53,0-5.3,0-.43,0-.79-.17-1.1-.46-.27-.26-.45-.57-.59-.91-.09-.24-.15-.5-.18-.76-.02-.2,0-.4.02-.6.03-.21.09-.41.17-.61.09-.21.2-.41.34-.59.21-.26.46-.48.77-.61.26-.11.54-.14.82-.14,1.68,0,3.36,0,5.03,0,.23,0,.41.09.51.31.01.02.02.04.02.07,0,.03,0,.05.04.06v.15Z"/>
    <path class="cls-1" d="M26.75,13.57c-.86,0-1.71,0-2.57,0-.5,0-.93-.17-1.28-.53-.21-.22-.37-.47-.48-.74-.08-.2-.15-.4-.18-.61-.04-.26-.06-.53-.01-.8.03-.17.06-.34.12-.51.15-.42.38-.79.73-1.07.14-.11.29-.21.46-.28.13-.05.26-.1.4-.1,1.62-.06,3.25-.01,4.87-.03.2,0,.4,0,.6,0,.22,0,.39.08.51.26.08.12.08.38,0,.49-.12.18-.29.26-.51.26-1.73,0-3.47,0-5.2,0-.15,0-.3.05-.43.13-.14.08-.27.18-.36.32-.1.15-.17.31-.2.49-.02.11-.03.22-.04.34-.01.12.01.25.03.37.04.27.14.5.34.69.15.15.33.25.54.28.11.02.21.02.32.02,1.69,0,3.39,0,5.08,0,.28,0,.48.19.51.47.02.23-.17.5-.44.53-.09.01-.19.01-.28.01-.84,0-1.68,0-2.51,0Z"/>
    <path class="cls-1" d="M10.4,11.22c0-.6,0-1.21,0-1.81,0-.23.18-.45.41-.5.32-.07.6.23.6.5,0,1.21,0,2.42,0,3.64,0,.25-.19.47-.43.51-.19.03-.35-.04-.47-.2-.08-.1-.11-.22-.11-.34,0-.6,0-1.19,0-1.79Z"/>
    <path class="cls-1" d="M25.76,10.72c.41,0,.82,0,1.23,0,.28,0,.52.24.52.51,0,.23-.18.43-.4.48-.07.02-.14.02-.21.02-.78,0-1.56,0-2.34,0-.34,0-.61-.28-.51-.65.05-.17.17-.29.34-.34.07-.02.15-.03.23-.03.19,0,.38,0,.57,0,.19,0,.38,0,.57,0Z"/>
    <g>
      <path class="cls-3" d="M23.5,7.13c0-.17-.03-.33-.11-.48-.03-.06-.07-.11-.12-.16-.5-.4-1.03-.75-1.6-1.05-.29-.15-.58-.28-.88-.41-.81-.33-1.67-.55-2.57-.66-.03,0-.06,0-.09-.01-.24-.03-.49-.04-.74-.05-.05,0-.17,0-.19,0-.04,0-.12,0-.17,0-.01,0-.1,0-.14,0-.15,0-.24,0-.39.01-.09,0-.18,0-.27.02-.68.05-1.34.18-1.98.36-.2.06-.39.13-.58.2-.24.09-.48.19-.72.3-.48.22-.94.47-1.39.75-.16.11-.32.22-.48.34-.02.01-.03.03-.05.04-.12.1-.23.21-.3.36-.05.11-.07.23-.08.36,0,.12-.02.23.01.35.03.12.1.18.21.13.23-.09.46-.19.69-.29.38-.18.78-.33,1.17-.48.27-.1.55-.19.83-.27.25-.07.49-.14.74-.19.38-.09.75-.16,1.14-.21.19-.02.38-.04.57-.07.07,0,.14-.02.22-.02.02,0,.05,0,.05.04,0,.12.04.9.05,1.17,0,.16,0,.32.01.48,0,.24.02.47.02.71,0,.35.02.7.03,1.04,0,.37.01.73.03,1.1.02.52.04,1.04.05,1.57,0,.25.01.5.02.75.02.53.03,1.06.05,1.59.01.34.02.68.03,1.02,0,.03,0,.08-.02.09-.1.11-.24.15-.38.16-.41.03-.81-.05-1.2-.16-.17-.05-.34-.12-.52-.16.1.08.2.15.31.22,0,0,0,0,0,0,.31.18.62.33.95.45.41.13.85.2,1.3.2.52,0,1.03-.1,1.49-.27.25-.1.48-.21.71-.35.14-.09.28-.18.41-.29-.11.03-.22.07-.33.1-.38.12-.77.23-1.17.25-.17.01-.33,0-.49-.03-.09-.02-.16-.06-.22-.13-.03-.01-.02-.04-.02-.06,0-.32.02-.65.03-.97.01-.41.03-.83.04-1.24.02-.46.03-.92.04-1.38,0-.2.01-.4.02-.6.02-.47.04-.95.05-1.42,0-.37.02-.74.03-1.11.01-.33.02-.67.03-1,0-.15.01-.31.02-.46,0-.13,0-.27,0-.4,0-.26.01-.53.03-.79,0-.14,0-.19.13-.19.3,0,.6.11.89.15.25.03.5.08.75.13.15.03.29.07.43.1.28.05.55.13.82.21.36.11.7.23,1.05.37.3.12.59.24.88.37.2.09.41.18.61.26.08.03.14,0,.18-.07.06-.1.04-.21.04-.32Z"/>
      <path class="cls-1" d="M16.55,15.54c-.1.11-.24.15-.38.16-.41.03-.81-.05-1.2-.16-.18-.05-.35-.12-.52-.16-.12-.11-.16-.24-.15-.39,0-.08.05-.12.12-.08.27.13.55.25.84.35.16.06.32.1.48.14.11.03.22.05.33.08.16.03.32.06.48.07Z"/>
      <path class="cls-1" d="M19.62,15.35c-.13.06-.21.07-.31.1-.38.12-.77.23-1.17.25-.17.01-.33,0-.49-.03-.09-.02-.16-.06-.22-.13.25-.01.5-.06.74-.11.32-.07.62-.17.92-.29.18-.07.36-.16.55-.23.07-.03.11,0,.12.08,0,.13,0,.25-.1.34-.01.01-.03.02-.03.02Z"/>
      <path class="cls-1" d="M16.14,5.77c-.15-.14-.37-.22-.55-.26-.31-.07-.63-.08-.95-.07-.07,0-.13,0-.2.01-.32.01-.62.06-.92.11-.21.04-.43.08-.64.12-.17.04-.34.09-.52.13-.28.07-.56.16-.83.24-.08.03-.16.05-.25.08-.09.06-.17.12-.25.19-.12.11-.24.22-.3.36-.05.11-.07.23-.08.35,0,.11-.02.23.01.35.03.12.1.18.2.14.23-.1.47-.19.69-.3.38-.18.78-.33,1.17-.48.27-.1.55-.19.83-.27.25-.07.49-.14.74-.19.38-.09.75-.16,1.13-.21.27-.04.55-.06.82-.08-.01-.09-.06-.16-.12-.22Z"/>
      <path class="cls-1" d="M23.38,6.65c-.03-.05-.07-.1-.11-.15-.13-.1-.25-.2-.38-.29-.15-.05-.31-.1-.46-.15-.37-.12-.75-.23-1.12-.32-.25-.06-.5-.12-.76-.16-.2-.04-.87-.13-1.01-.13-.19-.01-.38-.02-.58,0-.22,0-.49.05-.65.09-.09.03-.29.11-.35.15-.11.07-.21.15-.23.29.18.03.36.02.54.04.12.01.23.03.35.04.16.02.32.04.48.08.21.04.42.07.63.12.18.05.36.08.54.13.16.04.31.08.47.13.23.07.46.15.68.23.35.13.7.27,1.04.42.27.12.53.25.81.35.1.04.14.02.19-.07.06-.1.04-.21.04-.32,0-.17-.03-.33-.11-.48Z"/>
    </g>
  </g>
  <g>
    <path d="M22.31,14.73s.02-.03.03-.03h.16s.03.02.03.03v.7c0,.15.1.26.25.26s.25-.11.25-.26v-.7s.01-.03.03-.03h.16s.03.02.03.03v.71c0,.26-.21.47-.48.47s-.47-.21-.47-.47v-.71Z"/>
    <path d="M23.79,14.72s.02-.03.03-.03h.04l.71.75h0v-.71s.01-.03.03-.03h.16s.03.02.03.03v1.15s-.02.03-.03.03h-.04l-.71-.78h0v.73s-.01.03-.03.03h-.16s-.03-.02-.03-.03v-1.15Z"/>
    <path d="M26.08,14.71s.01-.03.03-.03h.03s.02,0,.03.02l.38.81h0l.38-.81s.01-.02.03-.02h.03s.03.01.03.03l.2,1.15s0,.04-.03.04h-.16s-.03-.01-.03-.03l-.1-.65h0l-.3.67s-.01.02-.03.02h-.03s-.02,0-.03-.02l-.3-.67h0l-.1.65s-.02.03-.03.03h-.15s-.04-.02-.03-.04l.2-1.15Z"/>
    <path d="M27.66,14.73s.02-.03.03-.03h.16s.03.02.03.03v.7c0,.15.1.26.25.26s.25-.11.25-.26v-.7s.01-.03.03-.03h.16s.03.02.03.03v.71c0,.26-.21.47-.48.47s-.47-.21-.47-.47v-.71Z"/>
    <path d="M29.14,14.72s.02-.03.03-.03h.04l.71.75h0v-.71s.01-.03.03-.03h.16s.03.02.03.03v1.15s-.02.03-.03.03h-.04l-.71-.78h0v.73s-.01.03-.03.03h-.16s-.03-.02-.03-.03v-1.15Z"/>
    <path d="M30.7,14.73s.01-.03.03-.03h.4c.33,0,.6.27.6.6s-.27.6-.6.6h-.4s-.03-.02-.03-.03v-1.13ZM31.11,15.69c.22,0,.38-.17.38-.39s-.16-.39-.38-.39h-.19v.78h.19Z"/>
    <path d="M32.72,14.68c.34,0,.61.27.61.62s-.27.61-.61.61-.61-.27-.61-.61.27-.62.61-.62ZM32.72,15.69c.22,0,.39-.18.39-.39s-.18-.39-.39-.39-.39.18-.39.39.18.39.39.39Z"/>
  </g>
  <g>
    <path d="M22.32,16.52s.01-.03.03-.03h.71s.03.02.03.03v.19s-.01.03-.03.03h-.47v.21h.39s.03.02.03.03v.19s-.02.03-.03.03h-.39v.23h.47s.03.02.03.03v.19s-.01.03-.03.03h-.71s-.03-.02-.03-.03v-1.13Z"/>
    <path d="M23.55,16.5s.02-.03.03-.03h.04l.68.66h0v-.61s.01-.03.03-.03h.2s.03.02.03.03v1.15s-.02.03-.03.03h-.03s-.02,0-.02,0l-.67-.68h0v.64s-.01.03-.03.03h-.2s-.03-.02-.03-.03v-1.15Z"/>
    <path d="M25.87,16.74h-.24s-.03-.02-.03-.03v-.19s.01-.03.03-.03h.76s.03.02.03.03v.19s-.01.03-.03.03h-.24v.91s-.02.03-.03.03h-.2s-.03-.02-.03-.03v-.91Z"/>
    <path d="M26.82,16.52s.01-.03.03-.03h.71s.03.02.03.03v.19s-.01.03-.03.03h-.47v.21h.39s.03.02.03.03v.19s-.02.03-.03.03h-.39v.23h.47s.03.02.03.03v.19s-.01.03-.03.03h-.71s-.03-.02-.03-.03v-1.13Z"/>
    <path d="M28.59,16.47c.17,0,.3.05.41.16.02.01.02.03,0,.05l-.13.14s-.03.01-.04,0c-.06-.06-.15-.09-.23-.09-.19,0-.33.16-.33.35s.14.35.34.35c.08,0,.17-.03.23-.08.01-.01.03-.01.04,0l.13.14s.01.03,0,.05c-.12.11-.26.17-.41.17-.34,0-.62-.27-.62-.61s.27-.62.62-.62Z"/>
    <path d="M29.44,16.5s.02-.03.03-.03h.04l.68.66h0v-.61s.01-.03.03-.03h.2s.03.02.03.03v1.15s-.02.03-.03.03h-.03s-.02,0-.02,0l-.67-.68h0v.64s-.01.03-.03.03h-.2s-.03-.02-.03-.03v-1.15Z"/>
    <path d="M31.52,16.47c.34,0,.61.27.61.62s-.27.61-.61.61-.61-.27-.61-.61.27-.62.61-.62ZM31.52,17.42c.19,0,.34-.15.34-.34s-.15-.34-.34-.34-.34.16-.34.34.15.34.34.34Z"/>
    <path d="M32.58,16.52s.01-.03.03-.03h.2s.03.02.03.03v.91h.41s.03.02.03.03v.19s-.01.03-.03.03h-.64s-.03-.02-.03-.03v-1.13Z"/>
    <path d="M34.2,16.47c.34,0,.61.27.61.62s-.27.61-.61.61-.61-.27-.61-.61.27-.62.61-.62ZM34.2,17.42c.19,0,.34-.15.34-.34s-.15-.34-.34-.34-.34.16-.34.34.15.34.34.34Z"/>
    <path d="M35.78,16.47c.14,0,.3.06.42.16.02.01.02.03,0,.05l-.13.14s-.03.01-.05,0c-.06-.06-.14-.08-.22-.08-.19,0-.34.16-.34.34s.15.34.34.34c.05,0,.1,0,.15-.03v-.1h-.11s-.03-.01-.03-.03v-.17s.01-.03.03-.03h.34s.03.02.03.03v.46s0,.02-.01.03c0,0-.18.11-.42.11-.34,0-.61-.27-.61-.61s.27-.61.61-.61Z"/>
    <path d="M36.66,16.36l-.04-.07s0-.03.01-.03l.29-.18s.04-.01.04,0l.06.1s0,.04-.01.05l-.31.14s-.04,0-.05-.02ZM36.69,16.52s.02-.03.03-.03h.2s.03.02.03.03v1.13s-.02.03-.03.03h-.2s-.03-.02-.03-.03v-1.13Z"/>
    <path d="M37.33,17.63l.53-1.15s.02-.02.03-.02h.02s.02,0,.03.02l.53,1.15s0,.04-.03.04h-.19s-.04-.01-.06-.04l-.06-.13h-.46l-.06.14s-.03.04-.06.04h-.19s-.04-.02-.03-.04ZM38.04,17.27l-.13-.28h0l-.13.28h.26Z"/>
  </g>
</svg>